<?xml version="1.0" encoding="utf-8"?>
<svg width="800px" height="800px" viewBox="0 0 24 24" fill="none" xmlns="http://www.w3.org/2000/svg">
  <g id="SVGRepo_bgCarrier" stroke-width="0"/>
  <g id="SVGRepo_tracerCarrier" stroke-linecap="round" stroke-linejoin="round"/>
  <g id="SVGRepo_iconCarrier" style="" transform="matrix(1.26485, 0, 0, 1.115097, -3.080305, -1.253286)">
    <path d="M 14.04 3.5 L 14.04 11 L 14.04 4.5 C 14.04 3.672 14.68 3 15.471 3 C 16.261 3 16.902 3.672 16.902 4.5 L 16.902 11 L 16.902 7.5 C 16.902 6.672 17.543 6 18.333 6 C 19.123 6 19.764 6.672 19.764 7.5 L 19.764 16 C 19.764 19.314 17.202 22 14.04 22 L 12.965 22 C 11.509 22 7.538 20.77 6.476 19.727 L 4.316 15.729 C 3.698 14.789 3.234 11.362 4.214 11.433 C 6.272 11.582 6.01 12.398 6.626 13.115 L 8.316 14.885 L 8.316 6.5 C 8.316 5.672 8.956 5 9.747 5 C 10.535 5 11.178 5.672 11.178 6.5 L 11.178 11 L 11.178 3.5 C 11.178 2.672 11.818 2 12.609 2 C 13.398 2 14.04 2.672 14.04 3.5 Z" stroke="#000000" stroke-linecap="round" stroke-linejoin="round" style="stroke-width: 1.09246px;"/>
  </g>
</svg>