<?xml version="1.0" encoding="utf-8"?>
<svg fill="#000000" height="800px" width="800px" version="1.1" id="Capa_1" viewBox="0 0 190.041 190.041" xmlns="http://www.w3.org/2000/svg">
  <defs>
    <linearGradient gradientUnits="userSpaceOnUse" x1="95.021" y1="0" x2="95.021" y2="190.04" id="gradient-0">
      <stop offset="0" style="stop-color: rgba(187, 218, 85, 1)"/>
      <stop offset="1" style="stop-color: rgba(135, 165, 36, 1)"/>
    </linearGradient>
  </defs>
  <g style="" transform="matrix(1.019702, 0, 0, 0.960923, -2.209663, 4.388158)">
    <path d="M 179.545 61.07 C 178.113 48.954 173.868 39.475 166.928 32.899 C 160.81 27.101 152.728 23.909 144.169 23.909 C 143.869 23.909 143.568 23.913 143.269 23.921 C 136.649 15.396 127.268 10.751 116.487 10.75 C 114.064 10.75 111.596 10.983 109.117 11.444 C 103.061 4.656 94.586 0.69 85.849 0.69 C 80.548 0.69 75.362 2.167 70.861 4.909 C 66.036 1.741 60.236 0 54.187 0 C 46.37 0 39.196 2.872 33.987 8.087 C 28.804 13.277 26.07 20.242 26.08 28.23 C 26.092 37.697 26.115 39.707 26.138 41.649 C 26.157 43.201 26.173 44.679 26.184 50.05 C 18.598 54.107 13.351 60.529 10.919 68.794 C 7.17 81.533 10.155 97.941 20.046 118.956 C 26.555 132.785 34.369 144.883 38.109 150.399 L 39.767 172.468 C 40.507 182.322 48.828 190.04 58.708 190.04 L 137.355 189.943 C 146.844 189.931 154.931 182.828 156.167 173.42 L 159.221 150.157 C 182.533 113.58 181.998 81.833 179.545 61.07 Z M 147.471 147.47 L 144.269 171.86 C 143.812 175.339 140.85 177.93 137.341 177.935 L 58.718 178.021 C 58.714 178.021 58.712 178.021 58.708 178.021 C 55.049 178.021 52.007 175.211 51.732 171.56 L 49.973 148.156 C 49.88 146.921 49.464 145.741 48.762 144.72 C 41.564 134.261 1.376 73.239 33.93 59.642 C 36.515 58.562 38.191 56.013 38.188 53.21 C 38.167 36.607 38.101 46.569 38.079 28.215 C 38.065 17.29 46.02 11.999 54.186 11.999 C 59.089 11.999 64.07 13.908 67.443 17.651 C 68.528 18.855 69.475 19.348 70.407 19.348 C 71.806 19.348 73.169 18.235 74.909 16.747 C 78.116 14.008 81.961 12.689 85.848 12.689 C 91.658 12.689 97.563 15.635 101.573 21.191 C 102.884 23.006 104.983 24 107.161 24 C 107.773 24 108.391 23.922 109.001 23.761 C 111.071 23.214 113.661 22.748 116.484 22.748 C 122.666 22.748 129.959 24.981 135.329 33.477 C 136.284 34.987 137.883 36.303 139.618 36.303 C 139.812 36.303 140.01 36.287 140.207 36.252 C 141.48 36.027 142.818 36.057 144.168 35.906 C 154.54 34.745 165.537 41.652 167.627 62.474 C 169.783 83.953 169.56 112.091 148.545 144.572 C 147.981 145.448 147.607 146.439 147.471 147.47 Z" style="stroke-opacity: 0.99; stroke-width: 0px; stroke: url(#gradient-0);"/>
  </g>
</svg>