<?xml version="1.0" encoding="utf-8"?>
<svg width="800px" height="800px" viewBox="0 0 24 24" id="Layer_1" data-name="Layer 1" fill="#000000" xmlns="http://www.w3.org/2000/svg">
  <g id="SVGRepo_bgCarrier" stroke-width="0"/>
  <g id="SVGRepo_tracerCarrier" stroke-linecap="round" stroke-linejoin="round"/>
  <g id="SVGRepo_iconCarrier" transform="matrix(0, 1, 1, 0, -0.412745, 0.412744)">
    <defs>
      <style>.cls-1{fill:none;stroke:#40f000;stroke-miterlimit:10;stroke-width:1.91px;}</style>
    </defs>
    <path class="cls-1" d="M6.17,10.86h0A8.16,8.16,0,0,1,14.33,19h0" style="stroke-linecap: square; stroke-width: 1.4px; stroke-dasharray: 2, 0, 5, 0, 10, 0; stroke-dashoffset: 11px;"/>
    <rect class="cls-1" x="17.73" y="2.48" width="4.77" height="7.64" rx="2.39" style="stroke-linecap: square; stroke-width: 1.4px; stroke-dasharray: 2, 0, 5, 0, 10, 0; stroke-dashoffset: 11px;"/>
    <rect class="cls-1" x="12.95" y="1.52" width="4.77" height="8.59" rx="2.39" style="stroke-linecap: square; stroke-width: 1.4px; stroke-dasharray: 2, 0, 5, 0, 10, 0; stroke-dashoffset: 11px;"/>
    <path class="cls-1" d="M 10.324 10.87 C 11.191 10.5 12.992 8.672 13 7.73 L 13 3.91 C 13.119 2.074 11.206 0.798 9.556 1.613 C 8.691 2.04 8.04 2.606 8.102 3.569 L 8.315 5.423" style="stroke-linecap: square; stroke-miterlimit: 27; stroke-width: 1.4px; stroke-dasharray: 2, 0, 5, 0, 10, 0; stroke-dashoffset: 11px;"/>
    <path class="cls-1" d="M 3.367 7.364 L 3.41 3.91 C 3.291 2.074 5.204 0.798 6.854 1.613 C 7.719 2.04 8.242 2.947 8.18 3.91 L 8.18 6.19" style="stroke-miterlimit: 18; stroke-linecap: square; stroke-width: 1.4px; stroke-dasharray: 2, 0, 5, 0, 10, 0; stroke-dashoffset: 11px;"/>
    <path class="cls-1" d="M 10.917 21.817 L 6.27 21.57 L 5.52 20.93 C 2.95 18.35 1.52 15.81 1.52 12.16 C 1.519 10.58 2.14 9.064 3.25 7.94 C 4.371 6.823 5.888 6.194 7.47 6.19 L 9.67 6.19 C 10.957 6.19 12 7.233 12 8.52 C 12.006 9.811 10.961 10.86 9.67 10.86 L 6.17 10.86" style="stroke-miterlimit: 14; stroke-width: 1.4px; stroke-linejoin: bevel; stroke-linecap: square; paint-order: fill markers; stroke-dashoffset: 29px; stroke-dasharray: 2, 0, 10, 0, 2, 0; stroke: none;"/>
    <path d="M 10.88 22.516 L 6.233 22.269 L 5.996 22.256 L 5.816 22.102 L 5.024 21.424 C 2.397 18.769 0.865 15.982 0.82 12.16 C 0.845 10.447 1.571 8.681 2.756 7.444 C 3.99 6.252 5.755 5.521 7.47 5.49 L 9.67 5.49 C 10.457 5.521 11.303 5.868 11.813 6.377 C 12.322 6.887 12.669 7.732 12.7 8.518 C 12.672 9.307 12.328 10.156 11.817 10.668 C 11.307 11.18 10.459 11.529 9.67 11.56 L 6.17 11.56 L 6.17 10.16 L 9.67 10.16 C 10.172 10.191 10.492 10.015 10.825 9.68 C 11.159 9.345 11.333 9.025 11.3 8.523 C 11.331 8.023 11.156 7.701 10.823 7.367 C 10.489 7.034 10.171 6.859 9.67 6.89 L 7.47 6.89 C 6.021 6.867 4.752 7.394 3.744 8.436 C 2.709 9.447 2.193 10.712 2.22 12.16 C 2.175 15.638 3.496 17.919 5.995 20.415 L 6.544 20.884 L 10.954 21.118 Z" style="fill: rgb(64, 240, 0);"/>
    <path class="cls-1" d="M 10.27 21.817 L 17.73 21.57 L 18.48 20.93 C 21.05 18.35 22.48 15.81 22.48 12.16 L 22.48 7.36" style="stroke-linecap: square; stroke-width: 1.4px; stroke-dasharray: 2, 0, 5, 0, 10, 0; stroke-dashoffset: 11px;"/>
  </g>
</svg>